<?xml version="1.0" encoding="UTF-8"?>
<svg xmlns="http://www.w3.org/2000/svg" width="1024" height="1024" viewBox="0 0 1024 1024">
  <title>安全驾驶日记</title>
  <desc>电池绿背景，中央小汽车，右下角盾牌内带有笔形状的打勾。</desc>

  <!-- 背景 -->
  <defs>
    <linearGradient id="bg" x1="0" y1="0" x2="0" y2="1">
      <stop offset="0%" stop-color="#34C759"/>
      <stop offset="100%" stop-color="#22B34B"/>
    </linearGradient>
    <clipPath id="round">
      <rect x="0" y="0" width="1024" height="1024" rx="222" ry="222"/>
    </clipPath>
  </defs>

  <g clip-path="url(#round)">
    <rect x="0" y="0" width="1024" height="1024" rx="222" ry="222" fill="url(#bg)"/>
    <ellipse cx="512" cy="260" rx="540" ry="300" fill="#FFFFFF" opacity="0.10"/>
  </g>

  <!-- 小汽车 -->
  <g fill="none" stroke="#FFFFFF" stroke-width="36" stroke-linecap="round" stroke-linejoin="round">
    <!-- 车身 -->
    <rect x="300" y="380" width="424" height="220" rx="60" ry="60"/>
    <!-- 车顶 -->
    <rect x="360" y="300" width="304" height="120" rx="40" ry="40"/>
    <!-- 车灯 -->
    <circle cx="300" cy="490" r="28" fill="#FFFFFF" stroke="none"/>
    <circle cx="724" cy="490" r="28" fill="#FFFFFF" stroke="none"/>
    <!-- 车轮 -->
    <circle cx="360" cy="640" r="44" fill="#FFFFFF" stroke="none"/>
    <circle cx="664" cy="640" r="44" fill="#FFFFFF" stroke="none"/>
  </g>

  <!-- 盾牌（右下角） -->
  <g transform="translate(200,220)">
    <!-- 盾牌外形 -->
    <path d="M720 620
             C 760 620, 804 634, 840 656
             C 840 720, 814 770, 720 830
             C 626 770, 600 720, 600 656
             C 636 634, 680 620, 720 620 Z"
          fill="#FFFFFF"/>
    <!-- 笔形打勾 -->
    <path d="M660 710 L710 760 L792 678" 
          fill="none" stroke="#19A34A" stroke-width="28" stroke-linecap="round" stroke-linejoin="round"/>
    <!-- 笔尖效果 -->
    <path d="M790 676 L802 664 L796 690 Z" fill="#19A34A"/>
  </g>
</svg>
