<?xml version="1.0" encoding="UTF-8"?>
<svg xmlns="http://www.w3.org/2000/svg" width="1024" height="1024" viewBox="0 0 1024 1024">
  <title>安全驾驶日记 (Tinted)</title>
  <desc>透明背景，绿色小汽车+盾牌+笔形打勾。</desc>

  <!-- 小汽车 -->
  <g fill="none" stroke="#34C759" stroke-width="36" stroke-linecap="round" stroke-linejoin="round">
    <!-- 车身 -->
    <rect x="300" y="380" width="424" height="220" rx="60" ry="60"/>
    <!-- 车顶 -->
    <rect x="360" y="300" width="304" height="120" rx="40" ry="40"/>
    <!-- 车灯 -->
    <circle cx="300" cy="490" r="28" fill="#34C759" stroke="none"/>
    <circle cx="724" cy="490" r="28" fill="#34C759" stroke="none"/>
    <!-- 车轮 -->
    <circle cx="360" cy="640" r="44" fill="#34C759" stroke="none"/>
    <circle cx="664" cy="640" r="44" fill="#34C759" stroke="none"/>
  </g>

  <!-- 盾牌（右下角） -->
  <g transform="translate(200,220)">
    <!-- 盾牌外形 -->
    <path d="M720 620
             C 760 620, 804 634, 840 656
             C 840 720, 814 770, 720 830
             C 626 770, 600 720, 600 656
             C 636 634, 680 620, 720 620 Z"
          fill="#34C759"/>
    <!-- 笔形打勾 -->
    <path d="M660 710 L710 760 L792 678" 
          fill="none" stroke="#FFFFFF" stroke-width="28" stroke-linecap="round" stroke-linejoin="round"/>
    <!-- 笔尖效果 -->
    <path d="M790 676 L802 664 L796 690 Z" fill="#FFFFFF"/>
  </g>
</svg>
