<?xml version="1.0" encoding="UTF-8"?>
<svg xmlns="http://www.w3.org/2000/svg" width="1024" height="1024" viewBox="0 0 1024 1024">
  <title>安全驾驶日记 (Tinted)</title>
  <desc>透明背景，电池绿描边与填充：小汽车，车身中央一本打开的笔记本，左页横线，中缝处一支笔。</desc>

  <!-- 小汽车 -->
  <g fill="none" stroke="#34C759" stroke-width="36" stroke-linecap="round" stroke-linejoin="round">
    <rect x="300" y="380" width="424" height="220" rx="60" ry="60"/>
    <rect x="360" y="300" width="304" height="120" rx="40" ry="40"/>
    <circle cx="300" cy="490" r="28" fill="#34C759" stroke="none"/>
    <circle cx="724" cy="490" r="28" fill="#34C759" stroke="none"/>
    <circle cx="360" cy="640" r="44" fill="#34C759" stroke="none"/>
    <circle cx="664" cy="640" r="44" fill="#34C759" stroke="none"/>
  </g>

  <!-- 打开的笔记本（缩小一半，微倾斜，放在车身中央） -->
  <g transform="rotate(-10 512 520)">
    <g transform="translate(462,480) scale(0.5)">
      <!-- 左页 -->
      <rect x="0" y="0" width="100" height="140" rx="8" ry="8" fill="none" stroke="#34C759" stroke-width="6"/>
      <!-- 右页 -->
      <rect x="100" y="0" width="100" height="140" rx="8" ry="8" fill="none" stroke="#34C759" stroke-width="6"/>
      <!-- 中缝 -->
      <line x1="100" y1="0" x2="100" y2="140" stroke="#34C759" stroke-width="6"/>

      <!-- 左页横线 -->
      <line x1="12" y1="30"  x2="88"  y2="30"  stroke="#34C759" stroke-width="5" opacity="0.85"/>
      <line x1="12" y1="55"  x2="88"  y2="55"  stroke="#34C759" stroke-width="5" opacity="0.85"/>
      <line x1="12" y1="80"  x2="88"  y2="80"  stroke="#34C759" stroke-width="5" opacity="0.85"/>
      <!-- 右页横线 -->
      <line x1="112" y1="30" x2="188" y2="30" stroke="#34C759" stroke-width="5" opacity="0.85"/>
      <line x1="112" y1="55" x2="188" y2="55" stroke="#34C759" stroke-width="5" opacity="0.85"/>
      <line x1="112" y1="80" x2="188" y2="80" stroke="#34C759" stroke-width="5" opacity="0.85"/>

      <!-- 笔（左页中间，斜向右下，笔尖朝下） -->
      <g transform="translate(50,70) rotate(30)">
        <!-- 笔身 -->
        <rect x="-5" y="-70" width="10" height="70" rx="5" ry="5" fill="#34C759"/>
        <!-- 笔尖 -->
        <path d="M-5 0 L0 16 L5 0 Z" fill="#34C759"/>
      </g>
    </g>
  </g>
</svg>
