<?xml version="1.0" encoding="UTF-8"?>
<svg xmlns="http://www.w3.org/2000/svg" width="1024" height="1024" viewBox="0 0 1024 1024">
  <title>安全驾驶日记</title>
  <desc>电池绿背景，小汽车；车身中央一本打开的笔记本。笔尖朝下，位于左页中心，像在写字。</desc>

  <!-- 背景 -->
  <defs>
    <linearGradient id="bg" x1="0" y1="0" x2="0" y2="1">
      <stop offset="0%" stop-color="#34C759"/>
      <stop offset="100%" stop-color="#22B34B"/>
    </linearGradient>
    <clipPath id="round">
      <rect x="0" y="0" width="1024" height="1024" rx="222" ry="222"/>
    </clipPath>
  </defs>

  <g clip-path="url(#round)">
    <rect x="0" y="0" width="1024" height="1024" rx="222" ry="222" fill="url(#bg)"/>
    <ellipse cx="512" cy="260" rx="540" ry="300" fill="#FFFFFF" opacity="0.10"/>
  </g>

  <!-- 小汽车 -->
  <g fill="none" stroke="#FFFFFF" stroke-width="36" stroke-linecap="round" stroke-linejoin="round">
    <rect x="300" y="380" width="424" height="220" rx="60" ry="60"/>
    <rect x="360" y="300" width="304" height="120" rx="40" ry="40"/>
    <circle cx="300" cy="490" r="28" fill="#FFFFFF" stroke="none"/>
    <circle cx="724" cy="490" r="28" fill="#FFFFFF" stroke="none"/>
    <circle cx="360" cy="640" r="44" fill="#FFFFFF" stroke="none"/>
    <circle cx="664" cy="640" r="44" fill="#FFFFFF" stroke="none"/>
  </g>

  <!-- 打开的笔记本 -->
  <g transform="rotate(-10 512 520)">
    <g transform="translate(462,480) scale(0.5)">
      <!-- 左页 -->
      <rect x="0" y="0" width="100" height="140" rx="8" ry="8" fill="#FFFFFF"/>
      <!-- 右页 -->
      <rect x="100" y="0" width="100" height="140" rx="8" ry="8" fill="#FFFFFF"/>
      <!-- 中缝 -->
      <line x1="100" y1="0" x2="100" y2="140" stroke="#22B34B" stroke-width="6"/>

      <!-- 左页横线 -->
      <line x1="12" y1="30"  x2="88"  y2="30"  stroke="#22B34B" stroke-width="5" opacity="0.75"/>
      <line x1="12" y1="55"  x2="88"  y2="55"  stroke="#22B34B" stroke-width="5" opacity="0.75"/>
      <line x1="12" y1="80"  x2="88"  y2="80"  stroke="#22B34B" stroke-width="5" opacity="0.75"/>
      <!-- 右页横线 -->
      <line x1="112" y1="30" x2="188" y2="30" stroke="#22B34B" stroke-width="5" opacity="0.75"/>
      <line x1="112" y1="55" x2="188" y2="55" stroke="#22B34B" stroke-width="5" opacity="0.75"/>
      <line x1="112" y1="80" x2="188" y2="80" stroke="#22B34B" stroke-width="5" opacity="0.75"/>

      <!-- 笔（左页，斜向右下，笔尖朝下） -->
      <g transform="translate(50,70) rotate(30)">
        <!-- 笔身 -->
        <rect x="-5" y="-70" width="10" height="70" rx="5" ry="5" fill="#22B34B"/>
        <!-- 笔尖（朝下） -->
        <path d="M-5 0 L0 16 L5 0 Z" fill="#22B34B"/>
      </g>
    </g>
  </g>
</svg>
